<svg xmlns="http://www.w3.org/2000/svg" width="1024" height="1024" viewBox="0 0 1024 1024"><path fill="#272636" d="M390.095 70.244l-24.38-24.455v342.373l24.38-24.456H48.762l24.38 24.456V45.79l-24.38 24.454h341.333zM24.38 21.334V412.616h390.095V21.332H24.383zM390.096 657.17l-24.38-24.455V975.09l24.38-24.456H97.667c-13.555 0-24.524-11-24.524-24.598v-293.32l-24.38 24.455h341.332zM24.38 608.26v317.775c0 40.616 32.806 73.51 73.287 73.51h316.808V608.26H24.383zM926.334 70.244c13.555 0 24.524 11 24.524 24.598v293.32l24.38-24.455H633.906l24.38 24.456V45.79l-24.38 24.454h292.428zm-316.81-48.91V412.616H999.62V94.843c0-40.616-32.804-73.51-73.285-73.51H609.525zM975.24 657.17l-24.38-24.455V975.09l24.38-24.456H633.905l24.38 24.455V632.714l-24.38 24.456h341.333zm-365.714-48.91v391.284h390.094V608.26H609.526zM487.62 388.44c0 13.507 10.915 24.456 24.38 24.456s24.38-10.95 24.38-24.456V119.154c0-13.506-10.915-24.455-24.38-24.455s-24.38 10.948-24.38 24.454V388.44zm97.523 292.93c0-13.505-10.916-24.454-24.38-24.454-13.466 0-24.382 10.95-24.382 24.455v293.72c0 13.506 10.917 24.455 24.382 24.455 13.465 0 24.38-10.95 24.38-24.456V681.37zm-97.524 98.077c0-13.506-10.917-24.455-24.382-24.455-13.465 0-24.38 10.95-24.38 24.455V975.09c0 13.506 10.915 24.455 24.38 24.455s24.38-10.95 24.38-24.456V779.446zm512-244.553c13.464 0 24.38-10.95 24.38-24.455 0-13.507-10.916-24.456-24.38-24.456H24.38C10.917 485.984 0 496.934 0 510.44c0 13.505 10.916 24.454 24.38 24.454h975.24z"/></svg>