<svg xmlns="http://www.w3.org/2000/svg" width="1024" height="1024" viewBox="0 0 1024 1024"><path fill="#272636" d="M79.46 922.074H42.09c-10.327 0-18.697-8.37-18.697-18.697V866.8c-1.016-13.924-.81-58.805 36.174-105.56 16.128-20.394 36.874-37.797 61.657-51.728 28.084-15.785 61.462-27.116 99.205-33.68.226-.038.452-.072.68-.104 41.397-5.642 75.74-15.87 90.41-22.227-.13-3.745-.412-8.74-.977-15.24-4.185-47.316-28.474-74.875-51.964-101.526-9.145-10.375-17.227-19.7-23.565-28.85-30.043-43.377-33.137-91.245-33.392-96.56-.013-.286-.02-.574-.02-.86-.03-17.02 4.437-31.58 13.61-44.227-5.266-36.305-5.283-84.58.168-118.91 3.587-53.38 43.31-92.47 52.264-100.638-.963-7.144-.77-14.248.586-21.23 3.437-18.053 17.446-48.862 72.5-51.626 3.037-.162 5.68-.317 8.08-.458l2.685-.156c10.305-.59 19.147 7.282 19.74 17.59.595 10.31-7.282 19.147-17.59 19.742l-2.644.153c-2.46.145-5.172.303-8.34.472-33.968 1.706-36.685 15.973-37.708 21.344-.96 4.95-.606 9.72 1.1 15.08 2.133 6.687.338 14.005-4.644 18.948-2.754 2.732-5.81 5.39-7.906 7.178-2.35 2.07-38.373 34.49-40.852 76.773-.038.64-.107 1.277-.21 1.91-5.37 32.965-4.95 82.774.977 115.863 1.036 5.787-.71 11.727-4.717 16.032-4.48 4.814-9.612 12.072-9.7 25.643.277 4.6 3.25 42.707 26.757 76.645 5.186 7.488 12.52 15.936 20.87 25.408 24.91 28.265 55.902 63.427 61.17 122.997 1.48 17.055 1.346 26.192.973 30.857-.404 5.06-2.85 9.74-6.772 12.96-17.197 14.12-72.254 27.992-115.487 33.918-61.418 10.736-108.996 35.527-137.61 71.704-23.243 29.384-29.793 60.638-28.174 80.088.043.517.065 1.034.065 1.552v18.606h18.672c10.326 0 18.697 8.37 18.697 18.697s-8.375 18.694-18.7 18.694zM751.1 976.38c-3.52 0-7.08-.992-10.242-3.067-33.198-21.788-87.573-23.946-91.09-24.062h-20.834l-33.277.254h-437.24c-10.326 0-18.697-8.37-18.697-18.696v-21.183c-.304-6.118-.8-38.72 19.966-74.446 13.028-22.415 31.746-41.656 55.635-57.19 28.898-18.79 65.48-32.13 108.728-39.648.234-.04.467-.076.7-.107.32-.043 32.66-4.47 65.87-13.13 57.784-15.068 63.97-28.62 64.016-28.753.35-1.374.85-2.69 1.49-3.926.47-2.66 1.565-12.262-.65-37.357-5.726-64.9-39.587-103.313-66.795-134.18-8.636-9.796-16.793-19.05-23.094-28.15-27.196-39.285-29.722-83.97-29.816-85.852-.015-.31-.023-.623-.023-.934 0-18.188 9.413-26.868 16.976-33.843l.41-.377c.064-.06.123-.115.173-.165-.033-1.352-.57-4.122-.94-6.033-.16-.827-.322-1.658-.476-2.493-6.79-36.864-7.256-93.8-1.12-130.38 2.328-48.356 43.965-85.325 45.753-86.89.07-.06.14-.122.213-.182 5.873-4.985 11.824-10.42 15.572-16.402.31-.493.552-.903.74-1.242-.258-.634-.575-1.365-.84-1.975-2.207-5.09-5.903-13.61-3.865-24.23 1.24-6.46 5.944-18 23.518-22.688 6.96-1.856 14.347-2.233 19.74-2.51l1.068-.055c21.166-1.114 43.743-2.057 66.603-.303 165.312 12.674 222.384 74.592 224.733 77.222.14.155.275.313.407.473 13.3 15.93 23.152 35.77 29.276 58.964 1.907 7.215 3.135 13.288 3.854 19.056 5.78 33.594 4.813 68.038 3.578 91.067-.69 12.92-2.13 26.5-4.537 42.724-.175 1.184-.516 4.006.104 4.747.696.832 1.562 1.752 2.48 2.725 3.714 3.942 8.802 9.34 11.527 18.065 1.367 4.384 2.002 9.06 2.002 14.728 0 .31-.008.623-.023.934-.095 1.882-2.62 46.567-29.818 85.85-6.3 9.102-14.456 18.353-23.09 28.148-27.21 30.866-61.073 69.28-66.8 134.18-2.22 25.175-1.11 34.76-.642 37.383.644 1.25 1.15 2.574 1.5 3.952.03.083 6.242 13.683 64.303 28.78 33.204 8.636 65.248 13.01 65.567 13.053.304.04.607.09.91.145 43.637 8.093 80.438 21.772 109.384 40.66 23.97 15.638 42.654 34.844 55.532 57.082 20.374 35.18 19.614 67.073 19.2 73.637v21.047c0 10.327-8.37 18.697-18.695 18.697H851.113c-1.052 0-2.082-.087-3.087-.253h-27.34c-10.326 0-18.696-8.37-18.696-18.696s8.37-18.697 18.695-18.697h49.16c1.052 0 2.082.087 3.087.254h78.39V909.1c0-.692.008-1.1.082-1.767.102-1.53 1.45-26.552-15.35-54.328-10.138-16.766-24.913-31.42-43.912-43.557-24.5-15.65-56.103-27.162-93.94-34.22-4.495-.623-36.926-5.276-70.95-14.234-52.426-13.8-80.76-30.343-88.58-51.828-3.878-7.53-6.05-22.343-2.96-57.38 6.807-77.13 46.797-122.495 75.998-155.62 8.233-9.34 15.343-17.405 20.398-24.705 19.694-28.447 22.877-62.088 23.187-66.052-.032-2.02-.234-2.83-.3-3.04-.153-.49-1.963-2.41-3.045-3.558-1.192-1.266-2.544-2.7-3.952-4.384-7.707-9.218-10.456-20.412-8.404-34.222 2.23-15.034 3.56-27.502 4.185-39.23 1.143-21.324 2.06-53.138-3.162-83.136-.057-.328-.107-.658-.145-.988-.496-4.148-1.43-8.74-2.94-14.45-4.662-17.653-11.887-32.497-21.48-44.133-1.66-1.69-14.524-14.214-43.126-27.836-28.492-13.57-78.774-30.998-156.517-36.958-20.633-1.585-41.833-.69-61.78.36l-1.12.058c-1.357.07-3.49.178-5.668.362 2.233 5.617 4.514 13.617 1.662 23.107-1.502 4.996-3.865 9.067-5.513 11.696-6.422 10.245-15.164 18.34-22.897 24.912-1.48 1.337-31.957 29.29-33.004 61.275-.03.87-.12 1.736-.268 2.594-5.617 32.275-5.24 85.405.845 118.437.132.72.27 1.432.408 2.143 1.786 9.202 5.11 26.33-10.586 40.805l-.416.383c-1.875 1.73-4.188 3.862-4.83 4.783-.03.163-.076.5-.094 1.072.325 4.18 3.49 37.558 23.184 66.003 5.054 7.3 12.165 15.368 20.398 24.708 29.2 33.125 69.188 78.49 75.992 155.618 3.093 35.036.923 49.85-2.954 57.38-7.82 21.485-36.155 38.026-88.582 51.828-34.32 9.036-67.018 13.69-71.062 14.25-38.09 6.655-69.856 18.126-94.418 34.097-18.934 12.31-33.634 27.327-43.692 44.63-16.477 28.347-14.98 53.38-14.962 53.625.04.5.06 1.002.06 1.504v3.012h418.342l33.277-.254h21.302c.142 0 .28 0 .422.004 2.746.063 67.727 1.844 110.92 30.188 8.632 5.665 11.037 17.256 5.372 25.89-3.593 5.47-9.563 8.44-15.65 8.44zm-83.667-289.922c.505.408.987.838 1.443 1.293-.43-.43-.91-.863-1.443-1.292z"/></svg>