<svg xmlns="http://www.w3.org/2000/svg" width="1024" height="1024" viewBox="0 0 1024 1024"><path fill="#272636" d="M766.44 943.558c-4.43 0-7.183-.145-7.477-.16l-.29-.02c-42.737-3.023-90.97-17.786-139.485-42.693l-.587-.315-54.078-30.25c-102.55-56.176-259.853-218.355-266.5-225.232l-11.433-11.83.09-.113c-27.665-29.69-84.593-94.66-133.9-175.608-55.48-91.075-81.614-169.62-77.68-233.45 2.923-47.424 22.464-85.972 58.08-114.572 38.27-30.73 73.25-43.54 106.934-39.163 36.108 4.69 69.02 28.68 103.574 75.497 2.307 3.126 4.59 6.207 6.842 9.244 25.68 34.643 47.858 64.562 55.936 95.558 9.428 36.174-1.875 69.727-34.558 102.576l-1.133 1.14-.24.144c-1.543 1.577-8.922 10.054-9.1 28.12-.18 18.29 6.823 40.115 20.814 64.865 19.22 34 51.16 72.403 94.933 114.142 73.37 69.475 120.597 88.594 147.29 92.39 23.4 3.33 33.678-4.654 35.457-6.243l.307-.43-.25.38.13-.12c27.874-32.116 63.648-42.732 106.33-31.55 30.784 8.065 64.736 26.94 110.082 61.2 34.673 26.195 55.872 52.228 64.805 79.59 9.914 30.357 5.176 61.74-14.483 95.945-5.145 8.954-16.573 12.04-25.526 6.893-8.952-5.145-12.04-16.573-6.893-25.526 14.275-24.84 17.885-45.718 11.358-65.706-6.482-19.855-23.427-39.927-51.8-61.36-53.48-40.405-80.984-50.663-97.02-54.864-29.01-7.6-50.218-1.41-68.768 20.065-2.237 2.58-16.856 18.028-47.286 19.763-50.307 2.858-114.065-31.9-189.49-103.323-86.843-82.807-129.657-153.37-127.296-209.775 1.334-31.847 17.014-48.313 21.69-52.54 46.8-47.34 27.25-78.138-25.33-149.068-2.265-3.058-4.564-6.16-6.887-9.307-28.098-38.068-52.98-57.33-78.306-60.622-23.05-2.994-48.796 7.224-78.702 31.238-27.443 22.04-41.892 50.73-44.172 87.72-3.406 55.26 21.592 128.465 72.29 211.696C240.36 529.238 306.066 599.502 324.88 618.86l2.492 2.565c20.532 20.968 164.29 166.18 255.18 215.937l.148.083 53.863 30.126c43.89 22.494 86.948 35.8 124.563 38.496 1.385.062 16.68.665 33.288-2.122 5.99-1.005 12.46-2.23 19.307-3.523 25.757-4.866 57.813-10.926 100.93-12.644 10.296-.403 19.015 7.62 19.425 17.937.41 10.317-7.62 19.015-17.937 19.425-40.364 1.61-70.922 7.386-95.474 12.026-7.04 1.33-13.69 2.587-20.058 3.657-13.71 2.3-26.467 2.738-34.163 2.738z"/></svg>