<svg xmlns="http://www.w3.org/2000/svg" width="1024" height="1024" viewBox="0 0 1024 1024"><path fill="#272636" d="M972.8 934.275l25.6-25.726H127.868c-42.366 0-76.668-34.53-76.668-77.287V111.06l-25.6 25.724h870.532c42.32 0 76.668 34.54 76.668 77.077v64.707c0 14.207 11.462 25.725 25.6 25.725 14.138 0 25.6-11.518 25.6-25.725V213.86c0-70.943-57.263-128.527-127.868-128.527H0v745.929C0 902.416 57.206 960 127.868 960H1024V457.698c0-14.207-11.462-25.725-25.6-25.725-14.138 0-25.6 11.518-25.6 25.725v476.577zm-460.148-367.11c7.996 5.71 18.536 6.325 27.137 1.586l462.835-255.056c12.397-6.832 16.935-22.47 10.137-34.926-6.798-12.458-22.36-17.02-34.756-10.187L515.17 523.64l27.138 1.586-348.28-248.685c-11.525-8.23-27.507-5.512-35.696 6.07-8.19 11.58-5.485 27.64 6.04 35.87l348.28 248.685z"/></svg>