<svg xmlns="http://www.w3.org/2000/svg" width="1024" height="1024" viewBox="0 0 1024 1024"><path fill="#272636" d="M1024 512C1024 229.23 794.77 0 512 0S0 229.23 0 512s229.23 512 512 512c117.41 0 228.826-39.67 318.768-111.313 10.79-8.595 12.57-24.308 3.975-35.097-8.594-10.79-24.308-12.568-35.097-3.974C718.47 938.276 618.002 974.05 512 974.05 256.818 974.05 49.95 767.18 49.95 512 49.95 256.818 256.82 49.95 512 49.95c255.182 0 462.05 206.868 462.05 462.05 0 87.493-24.335 171.337-69.58 243.96-7.293 11.708-3.715 27.112 7.993 34.405 11.707 7.294 27.11 3.716 34.405-7.99C997.014 701.88 1024 608.897 1024 512zM499.512 743.024c0 13.794 11.182 24.976 24.976 24.976 13.793 0 24.975-11.182 24.975-24.976v-318.44c0-13.792-11.182-24.974-24.975-24.974-13.794 0-24.976 11.182-24.976 24.975v318.44zm0-424.585c0 13.793 11.182 24.975 24.976 24.975 13.793 0 24.975-11.182 24.975-24.976V274.73c0-13.794-11.182-24.976-24.975-24.976-13.794 0-24.976 11.182-24.976 24.976v43.707z"/></svg>