<svg xmlns="http://www.w3.org/2000/svg" width="1024" height="1024" viewBox="0 0 1024 1024"><path fill="#272636" d="M883.42 25.19H137.903c-36.992 0-67.087 30.095-67.087 67.087v819.24c0 36.993 30.095 67.09 67.087 67.09h487.422c17.542.263 67.522 4.91 89.9 23.094 3.414 2.775 7.523 4.126 11.605 4.126 5.354 0 10.665-2.324 14.304-6.804 6.416-7.895 5.216-19.496-2.678-25.91-36.37-29.554-105.064-31.248-112.777-31.344H137.9c-16.68 0-30.248-13.57-30.248-30.25V92.278c0-16.68 13.57-30.25 30.248-30.25h162.213l-.038.47-.13-.01c1.402.134 34.073 3.59 47.286 33.64 2.586 10.103 15.582 50.082 60.717 58.045l1.588.28h179.598l1.588-.28c45.135-7.963 58.136-47.946 60.722-58.044 13.208-30.05 45.884-33.508 47.286-33.64l-.13.01-.04-.47h184.86c16.678 0 30.248 13.57 30.248 30.248v819.24c0 16.68-13.57 30.25-30.25 30.25h-89.517c-10.172 0-18.42 8.247-18.42 18.42s8.248 18.42 18.42 18.42h89.518c36.993 0 67.09-30.096 67.09-67.09V92.28c-.002-36.993-30.097-67.088-67.09-67.088zM616.857 83.336l-.696 1.69-.35 1.794c-.05.26-5.263 25.51-30.048 30.795h-172.85c-23.755-5.08-29.604-28.86-30.054-30.86l-.273-1.568-.764-1.853c-3.382-8.213-7.585-15.26-12.275-21.306H629.13c-4.69 6.047-8.893 13.095-12.274 21.308zm130.428 214.44H175.44c-10.173 0-18.42 8.248-18.42 18.42s8.247 18.42 18.42 18.42h571.844c10.172 0 18.42-8.247 18.42-18.42s-8.248-18.42-18.42-18.42zm0 231.173H175.44c-10.173 0-18.42 8.246-18.42 18.42s8.247 18.418 18.42 18.418h571.844c10.172 0 18.42-8.247 18.42-18.42s-8.248-18.42-18.42-18.42zM175.44 456.284h381.23c10.174 0 18.42-8.247 18.42-18.42s-8.246-18.42-18.42-18.42H175.44c-10.174 0-18.42 8.248-18.42 18.42s8.246 18.42 18.42 18.42z"/></svg>