<svg xmlns="http://www.w3.org/2000/svg" width="1024" height="1024" viewBox="0 0 1024 1024"><path fill="#272636" d="M508.765 548.913c-45.57 0-82.642 37.073-82.642 82.643 0 18.12 5.76 35.32 16.66 49.74.234.31.476.61.728.904 20.42 23.794 21.902 40.78 21.997 42.337v47.198c0 23.853 19.406 43.258 43.26 43.258s43.26-19.406 43.26-43.258v-48.09c0-.54-.024-1.08-.07-1.618-.005-.04.107-.01.112-.05.117-1.084.48-3.402 1.585-6.76 2.22-6.75 7.442-17.813 19.73-32.18.177-.206.35-.418.52-.634 11.453-14.647 17.508-32.23 17.508-50.846 0-45.57-37.076-82.644-82.648-82.644zm35.907 110.166c-28.9 33.942-30.313 58.252-30.04 65.053v47.603c0 3.234-2.63 5.865-5.866 5.865s-5.865-2.63-5.865-5.864v-47.423c.003-3.492-.96-31.194-30.592-65.974-5.753-7.793-8.79-17.04-8.79-26.784 0-24.95 20.298-45.25 45.248-45.25 24.954 0 45.255 20.3 45.255 45.25 0 10.065-3.232 19.573-9.348 27.523zm278.01-268.668h-45.82V270.364c0-.793-.05-1.586-.15-2.374-8.166-63.78-39.284-122.51-87.624-165.367C640.325 59.39 577.543 35.58 512.31 35.58c-71.204 0-138.146 27.73-188.494 78.077-50.35 50.348-78.077 117.29-78.077 188.496v88.23l-50.885.03c-35.176 0-63.793 28.617-63.793 63.792v452.057c0 35.176 28.617 63.792 63.793 63.792h389.76c.568 0 1.13-.024 1.684-.074h234.697c.555.05 1.117.074 1.684.074 35.176 0 63.793-28.616 63.793-63.792V454.205c0-35.175-28.617-63.793-63.792-63.793zm26.398 515.85c0 13.887-10.778 25.304-24.41 26.325H578.915c-.568 0-1.13.025-1.684.075H194.854c-14.558 0-26.4-11.843-26.4-26.4V454.205c0-14.558 11.843-26.4 26.4-26.4l69.59-.042c.954 0 1.883-.095 2.798-.233 1.003.167 2.028.275 3.08.275H623.25c.336.008.857.015 1.547.015 9.41 0 50.318-1.432 85.97-24.945 8.62-5.686 10.997-17.282 5.312-25.902-5.688-8.62-17.285-10.998-25.903-5.313-29.552 19.492-65.778 18.77-66.08 18.762-.206-.007-.41-.01-.618-.01H283.13v-88.26c0-61.217 23.84-118.768 67.126-162.055C393.542 96.81 451.094 72.973 512.31 72.973c56.083 0 110.054 20.466 151.97 57.63 41.278 36.594 67.948 86.618 75.19 140.975v136.275c0 1.673.225 3.34.667 4.952l.345 1.254c2.23 8.117 9.61 13.743 18.028 13.743h64.172c14.556 0 26.4 11.843 26.4 26.4v452.06z"/></svg>