<svg xmlns="http://www.w3.org/2000/svg" width="1024" height="1024" viewBox="0 0 1024 1024"><path fill="#272636" d="M703.4 995.074c-3.52 0-7.078-.99-10.24-3.067-30.29-19.875-80.136-25.263-97.08-25.678h-22.12l-35.287.27H92.74c-10.326 0-18.697-8.37-18.697-18.697v-22.468c-.318-6.267-.91-40.604 21.005-78.307 13.716-23.6 33.43-43.86 58.598-60.226 30.494-19.83 69.117-33.91 114.797-41.85.233-.04.467-.075.7-.107.348-.047 35.5-4.858 71.21-14.273 61.894-16.317 67.308-30.743 67.345-30.884.365-1.43.895-2.804 1.573-4.095.51-2.7 1.765-12.86-.636-40.08-6.1-69.137-42.12-109.995-71.062-142.826-9.128-10.355-17.75-20.134-24.387-29.723-28.64-41.372-31.297-88.417-31.396-90.4-.016-.31-.024-.62-.024-.932 0-18.78 9.364-27.42 17.625-35.04l.435-.402c.27-.25.442-.437.542-.557.093-1.34-.567-4.743-1.013-7.04-.17-.875-.34-1.752-.502-2.634-7.18-38.983-7.67-99.194-1.175-137.84 2.41-50.812 46.224-89.71 48.105-91.355l.215-.186c6.29-5.34 12.672-11.17 16.728-17.637.487-.776.828-1.378 1.066-1.837-.303-.787-.74-1.794-1.093-2.61-2.437-5.617-6.12-14.108-4.024-25.022 1.264-6.59 6.078-18.363 24.118-23.174 7.263-1.937 15.023-2.333 20.69-2.622l1.123-.058c22.39-1.18 46.273-2.177 70.435-.325 174.73 13.396 234.92 78.686 237.397 81.46.14.155.276.314.41.474 13.986 16.756 24.347 37.635 30.796 62.055 2.016 7.62 3.31 14.016 4.063 20.072 6.103 35.465 5.085 71.905 3.782 96.27-.732 13.675-2.257 28.03-4.8 45.175-.692 4.656.07 5.565.355 5.907.758.906 1.687 1.89 2.668 2.934 3.863 4.1 9.152 9.713 11.964 18.72 1.41 4.504 2.07 9.36 2.07 15.27 0 .31-.01.62-.023.932-.1 1.982-2.757 49.027-31.396 90.398-6.64 9.59-15.26 19.37-24.387 29.723-28.943 32.83-64.96 73.69-71.062 142.828-2.402 27.22-1.145 37.38-.637 40.08.678 1.29 1.208 2.664 1.572 4.094.037.14 5.472 14.613 67.65 30.963 35.704 9.39 70.557 14.146 70.905 14.193.304.04.607.09.91.146 46.095 8.55 84.956 22.99 115.504 42.923 25.252 16.477 44.93 36.702 58.49 60.114 21.5 37.128 20.625 70.714 20.194 77.443v22.333c0 10.326-8.37 18.697-18.696 18.697H775.884c-10.326 0-18.697-8.37-18.697-18.697s8.37-18.697 18.697-18.697h158.19v-4.312c0-.687.008-1.106.08-1.77.105-1.508 1.628-28.332-16.35-58.13-10.82-17.938-26.588-33.61-46.87-46.58-26.1-16.694-59.76-28.97-100.052-36.484-4.64-.643-39.012-5.565-75.08-15.06-70.762-18.63-87.965-39.353-93.19-54.396-4.004-7.766-6.246-23.195-2.985-60.153 7.18-81.37 49.42-129.283 80.26-164.268 8.748-9.922 16.302-18.49 21.694-26.28 21.12-30.51 24.438-66.3 24.766-70.606-.033-2.25-.26-3.222-.362-3.55-.25-.797-1.898-2.546-3.49-4.237-1.25-1.328-2.67-2.833-4.137-4.588-7.95-9.504-10.783-21.08-8.66-35.385 2.368-15.96 3.78-29.206 4.45-41.684 1.95-36.502.913-63.748-3.365-88.34-.057-.328-.105-.656-.145-.984-.53-4.44-1.53-9.355-3.148-15.47-4.987-18.884-12.728-34.77-23.008-47.233-1.714-1.748-15.385-15.126-45.883-29.676-54.884-26.184-120.792-35.85-166.418-39.35-21.934-1.68-44.442-.73-65.614.384l-1.18.06c-1.765.09-4.735.242-7.557.526 2.448 5.842 5.454 14.633 2.297 25.137-1.185 3.94-3.003 7.793-5.723 12.13-6.733 10.734-15.924 19.236-24.055 26.146-1.6 1.442-34.225 31.356-35.352 65.738-.03.87-.118 1.736-.267 2.594-5.97 34.304-5.568 90.78.9 125.894.14.766.288 1.526.435 2.283 1.98 10.206 5.295 27.285-10.88 42.202l-.435.403c-2.086 1.924-4.943 4.56-5.416 5.468.003 0-.133.427-.165 1.584.328 4.296 3.653 40.06 24.763 70.555 5.392 7.79 12.946 16.357 21.693 26.28 30.842 34.984 73.08 82.9 80.26 164.266 3.26 36.96 1.02 52.388-2.985 60.154-5.225 15.043-22.427 35.767-93.188 54.396-36.365 9.574-71.006 14.497-75.19 15.074-39.834 6.96-73.196 18.883-99.16 35.445-20.186 12.877-35.97 28.6-46.92 46.733-18.282 30.28-17.133 57.86-17.055 59.336.05.545.054.87.054 1.435v4.31h427.012l35.288-.272h22.567c.14 0 .28 0 .422.005 2.895.064 71.445 1.943 116.948 31.803 8.634 5.666 11.04 17.256 5.375 25.89-3.594 5.475-9.564 8.444-15.653 8.444zm-71.933-305.198c.454.37.89.757 1.306 1.165-.394-.386-.83-.777-1.306-1.164zm-217.425 0c-.472.383-.902.77-1.292 1.152.41-.402.843-.786 1.292-1.152z"/></svg>