<?xml version="1.0" encoding="utf-8"?>
<!DOCTYPE svg PUBLIC "-//W3C//DTD SVG 1.1//EN" "http://www.w3.org/Graphics/SVG/1.1/DTD/svg11.dtd">
<svg version="1.1" id="图形" xmlns="http://www.w3.org/2000/svg" xmlns:xlink="http://www.w3.org/1999/xlink" x="0px" y="0px" width="1024px" height="1024px" viewBox="0 0 1024 1024" enable-background="new 0 0 1024 1024" xml:space="preserve">
  <path fill="#272636" d="M972.8-122.274509 998.4-96.54902 127.868001-96.54902C85.502225-96.54902 51.2-62.019706 51.2-19.263017L51.2 700.941177 25.6 675.215686 896.131998 675.215686C938.452011 675.215686 972.8 640.675722 972.8 598.139066L972.8 533.433306C972.8 519.22551 984.26151 507.707817 998.4 507.707817 1012.53849 507.707817 1024 519.22551 1024 533.433306L1024 598.139066C1024 669.083444 966.736828 726.666667 896.131998 726.666667L25.6 726.666667 0 726.666667 0 700.941177 0-19.263017C0-90.415639 57.205646-148 127.868001-148L998.4-148 1024-148 1024-122.274509 1024 354.30151C1024 368.509306 1012.53849 380.026999 998.4 380.026999 984.26151 380.026999 972.8 368.509306 972.8 354.30151L972.8-122.274509ZM512.651558 244.835183C520.64791 239.125502 531.187889 238.509594 539.788919 243.249399L1002.624789 498.306306C1015.021598 505.137867 1019.560139 520.774804 1012.761901 533.232381 1005.963665 545.689959 990.403006 550.250746 978.006197 543.419184L515.170327 288.362278 542.307689 286.776495 194.028065 535.460533C182.502788 543.689991 166.520953 540.972402 158.331639 529.390628 150.142325 517.808854 152.846657 501.748678 164.371935 493.519219L512.651558 244.835183Z" transform="translate(0, 812) scale(1, -1)"/>
</svg>
